# xmcd CD database file
#
# Track frame offsets:
#	150
#	22617
#	49707
#	76800
#	99275
#	124345
#	160767
#	184242
#	210792
#	235462
#	258970
#	291350
#	315750
#
# Disc length: 4334 seconds
#
# Revision: 0
# Processed by: cddbd v1.5.1PL2 Copyright (c) Steve Scherf et al.
# Submitted via: CDex 1.51
#
DISCID=9910ec0d
DTITLE=Various Artist - That's Core Jazz 2
DYEAR=1991
DGENRE=Jazz
TTITLE0=David Torkanowsky - Big Greaze
TTITLE1=Bill - Connors - Twinkle
TTITLE2=Tony Dagradi Trio - Guru Kirpal Ji Tera Sahara
TTITLE3=Ellis Marsalis - Nica's Dream
TTITLE4=Quartett and Brass - Family Life
TTITLE5=Alex Sanguinetti Akimbo - Mr. Chick
TTITLE6=New Orleans Saxophone Ensemble - NOSE Blues
TTITLE7=Ramsey McLean 6 The Survivors - Rocket Number Nine
TTITLE8=Bill Conners - Tud
TTITLE9=Christy Doran-John Wolf Brennan - Cascades
TTITLE10=Germaine Bazzle and Friends - As Time Goes By
TTITLE11=David Liebman - Spirit
TTITLE12=David Rosenbloom - Departure (Excerpt)-Coda II
EXTD=YEAR: 1991
EXTT0=
EXTT1=
EXTT2=
EXTT3=
EXTT4=
EXTT5=
EXTT6=
EXTT7=
EXTT8=
EXTT9=
EXTT10=
EXTT11=
EXTT12=
PLAYORDER=
